<svg xmlns="http://www.w3.org/2000/svg" xmlns:xlink="http://www.w3.org/1999/xlink" height="59" viewBox="0 0 64 59" width="64"><linearGradient id="a"><stop offset="0" stop-color="#e94a53"/><stop offset="1" stop-color="#f96447"/></linearGradient><linearGradient id="b" x1=".382%" x2="100.419%" xlink:href="#a" y1="50.124%" y2="50.124%"/><linearGradient id="c" x1=".009%" x2="99.886%" xlink:href="#a" y1="49.835%" y2="49.835%"/><linearGradient id="d" x1=".223%" x2="99.89%" xlink:href="#a" y1="49.751%" y2="49.751%"/><linearGradient id="e" x1="-.008%" xlink:href="#a" y1="50.007%" y2="50.007%"/><g fill="none" fill-rule="evenodd"><path d="m24.709 42.291a1.008 1.008 0 0 0 -1.418 0 1.008 1.008 0 0 0 0 1.418 1.01 1.01 0 0 0 1.418 0 1.008 1.008 0 0 0 0-1.418z" fill="url(#b)"/><path d="m22.699 38.88-2.932-3.519c-.402-.481-1.064-.481-1.466 0-.401.482-.401 1.278 0 1.76l2.932 3.518c.402.481 1.064.481 1.466 0 .401-.506.401-1.278 0-1.76z" fill="url(#c)"/><path d="m25.693 35.87-2.918-3.502c-.409-.49-1.06-.49-1.468 0a1.419 1.419 0 0 0 0 1.762l2.918 3.502c.409.49 1.06.49 1.468 0 .41-.513.41-1.294 0-1.762z" fill="url(#d)"/><path d="m63.971 2.592a1.254 1.254 0 0 0 -1.08-.983l-13.354-1.6a1.25 1.25 0 0 0 -1.328.868l-1.667 5.099-12.766 12.964-33.032 14.771c-.45.206-.743.64-.743 1.12-.022.48.248.938.698 1.167l14.546 7.385 4.819 14.748c.157.48.585.823 1.103.869h.09c.473 0 .9-.274 1.126-.709l16.685-33.931 12.902-13.102 11.46-7.318c.429-.274.654-.823.541-1.349zm-42.489 51.812-4.052-12.324c-.112-.32-.338-.595-.63-.732l-12.633-6.402 24.7-11.044-2.341 2.401a1.284 1.284 0 0 0 0 1.806l3.535 3.59a1.237 1.237 0 0 0 1.779 0l1.644-1.669zm15.628-31.668-6.17 6.265-1.779-1.806 6.17-6.265.022-.023 12.271-12.439 1.779 1.807-12.294 12.461zm14.23-14.085-2.296-2.31 1.193-3.658 8.827 1.052z" fill="url(#e)" fill-rule="nonzero"/></g></svg>