<svg xmlns="http://www.w3.org/2000/svg" xmlns:xlink="http://www.w3.org/1999/xlink" height="52" viewBox="0 0 52 52" width="52"><linearGradient id="a"><stop offset="0" stop-color="#e94a53"/><stop offset="1" stop-color="#f96447"/></linearGradient><linearGradient id="b" x1="-.011%" x2="100.011%" xlink:href="#a" y1="50%" y2="50%"/><linearGradient id="c" x1=".06%" x2="100.129%" xlink:href="#a" y1="50.012%" y2="50.012%"/><linearGradient id="d" x1="-.034%" x2="99.953%" xlink:href="#a" y1="50.019%" y2="50.019%"/><linearGradient id="e" x1=".546%" x2="100.538%" xlink:href="#a" y1="50.024%" y2="50.024%"/><linearGradient id="f" x1=".459%" x2="100.451%" xlink:href="#a" y1="49.964%" y2="49.964%"/><g fill="none" fill-rule="evenodd"><path d="m52 26a5.924 5.924 0 0 0 -5.912-5.917h-.02a21.05 21.05 0 0 0 -1.77-4.02l.083-.084a5.862 5.862 0 0 0 1.728-4.187c0-1.584-.604-3.084-1.728-4.188a5.914 5.914 0 0 0 -8.368 0l-.23.23a20.912 20.912 0 0 0 -3.871-1.563v-.354a5.924 5.924 0 0 0 -5.912-5.917c-3.247 0-5.912 2.667-5.912 5.917v.354a20.912 20.912 0 0 0 -3.872 1.562l-.229-.229a5.914 5.914 0 0 0 -8.368 0 5.926 5.926 0 0 0 0 8.375l.083.084a21.05 21.05 0 0 0 -1.77 4.02h-.02c-3.268 0-5.912 2.667-5.912 5.917 0 3.167 2.519 5.77 5.662 5.917.416 1.541.979 3 1.707 4.375-2.06 2.333-1.977 5.895.25 8.104a5.908 5.908 0 0 0 4.184 1.729 5.976 5.976 0 0 0 3.768-1.354 20.561 20.561 0 0 0 4.559 1.937 5.918 5.918 0 0 0 5.89 5.292 5.934 5.934 0 0 0 5.892-5.292 20.561 20.561 0 0 0 4.559-1.937 5.892 5.892 0 0 0 3.768 1.354c1.52 0 3.039-.583 4.184-1.73a5.862 5.862 0 0 0 1.728-4.187 5.87 5.87 0 0 0 -1.478-3.916 19.891 19.891 0 0 0 1.707-4.375c3.122-.147 5.62-2.75 5.62-5.917zm-5.392-3.854c1.895.25 3.352 1.896 3.352 3.854 0 1.896-1.374 3.48-3.164 3.833 0-.02 0-.041.02-.062 0-.063.021-.125.021-.167.021-.104.021-.208.042-.291 0-.063.02-.125.02-.209.022-.104.022-.187.043-.291 0-.063.02-.125.02-.188.021-.146.021-.292.042-.458 0-.063 0-.125.02-.167 0-.104.022-.208.022-.313v-.187c0-.104 0-.208.02-.333v-1.271c0-.146 0-.313-.02-.459v-.104c0-.145-.021-.291-.021-.437 0-.042 0-.104-.021-.146-.02-.125-.02-.27-.042-.396 0-.062-.02-.125-.02-.187-.021-.105-.021-.23-.042-.334-.02-.083-.02-.166-.042-.25-.02-.083-.02-.187-.041-.27-.021-.105-.042-.209-.063-.334-.02-.062-.02-.125-.041-.187-.021-.125-.042-.271-.084-.396 0-.042-.02-.084-.02-.125.02-.063.02-.104 0-.125zm-1.582 4.854v.146c0 .125 0 .25-.02.375v.146c0 .125-.021.229-.021.354 0 .062 0 .104-.021.166 0 .105-.02.23-.042.334 0 .062-.02.125-.02.187-.021.105-.021.209-.042.313 0 .062-.02.146-.02.208-.022.084-.022.188-.043.271-.02.083-.02.167-.041.23-.021.082-.021.145-.042.228-.02.105-.041.188-.062.292-.021.063-.021.104-.042.167-1.52 7.187-7.098 12.895-14.218 14.583-.062.02-.104.02-.166.042-.104.02-.188.041-.292.062s-.187.042-.291.063c-.063.02-.125.02-.208.041a19.147 19.147 0 0 1 -6.89 0c-.063-.02-.125-.02-.209-.041-.104-.021-.187-.042-.291-.063-.104-.02-.188-.041-.292-.062-.062-.021-.104-.021-.166-.042-7.12-1.688-12.698-7.396-14.218-14.583-.02-.063-.02-.105-.042-.167-.02-.104-.041-.188-.062-.292-.02-.083-.02-.145-.042-.229-.02-.083-.02-.166-.041-.229-.021-.083-.021-.188-.042-.27 0-.063-.02-.147-.02-.21-.022-.103-.022-.207-.042-.312 0-.062-.021-.125-.021-.187-.021-.104-.021-.23-.042-.334 0-.062-.02-.104-.02-.166 0-.125-.021-.23-.021-.354v-.146c0-.125-.021-.25-.021-.375v-1.417c0-.146.02-.291.02-.437 0-.063 0-.105.021-.167.021-.188.021-.396.042-.583l.062-.563c0-.062.021-.125.021-.187.021-.125.042-.25.063-.396.02-.063.02-.146.041-.209.021-.145.063-.291.084-.437.02-.104.041-.23.062-.333.02-.084.042-.188.063-.271.02-.104.062-.23.083-.334.02-.062.02-.104.041-.166 1.79-6.75 7.182-12.063 13.99-13.667.062-.02.124-.02.187-.042.083-.02.187-.041.27-.062l.312-.063c.063-.02.125-.02.188-.041a19.262 19.262 0 0 1 6.91 0c.063.02.126.02.188.042l.313.062c.083.02.187.042.27.063.063.02.125.02.187.041 6.808 1.625 12.22 6.917 13.99 13.667.02.062.02.104.04.166.022.105.063.23.084.334.021.083.042.166.063.27.02.126.041.23.083.355.02.146.062.291.083.437.021.063.021.146.042.209l.062.375c0 .062.021.125.021.187.02.188.042.375.063.563v.02c.02.188.041.396.041.584 0 .062 0 .104.021.166 0 .146.02.292.02.438v.75c.042.167.042.333.042.5zm-4.829-19.104c1.04 0 2.02.396 2.748 1.125a3.86 3.86 0 0 1 1.124 2.75c0 .937-.312 1.812-.916 2.5a21.474 21.474 0 0 0 -5.579-5.396 4.009 4.009 0 0 1 2.623-.98zm-18.09-2.126a3.905 3.905 0 0 1 3.893-3.77c2.102 0 3.81 1.667 3.893 3.77-.042 0-.063-.02-.104-.02-.063-.02-.125-.02-.188-.042a1.632 1.632 0 0 0 -.291-.041c-.083-.021-.146-.021-.23-.042-.082-.02-.166-.02-.249-.042-.083-.02-.166-.02-.25-.041-.083 0-.166-.021-.25-.021-.083 0-.187-.021-.27-.021s-.167-.02-.23-.02c-.082 0-.186-.022-.27-.022-.083 0-.166-.02-.25-.02-.083 0-.166-.021-.25-.021-.103 0-.187 0-.29-.021h-1.5c-.104 0-.187 0-.291.02-.083 0-.167 0-.25.021-.083 0-.166 0-.25.021-.083 0-.187.021-.27.021s-.167.021-.23.021c-.082 0-.187.02-.27.02s-.166.022-.25.022c-.083.02-.166.02-.25.041-.083.021-.166.021-.25.042-.082.02-.145.02-.228.042-.104.02-.208.041-.292.041-.062.021-.125.021-.187.042-.062 0-.104.02-.146.02zm-13.052 3.27a3.895 3.895 0 0 1 2.748-1.145c.937 0 1.874.333 2.602 1a21.474 21.474 0 0 0 -5.579 5.396c-1.29-1.521-1.207-3.813.23-5.25zm-3.85 20.792a3.875 3.875 0 0 1 -3.165-3.832c0-1.958 1.457-3.604 3.352-3.854 0 .02 0 .062-.021.083 0 .042-.021.104-.021.146l-.063.375c-.02.083-.02.146-.041.23a1.595 1.595 0 0 0 -.042.29c-.02.105-.02.188-.041.293-.021.083-.021.166-.042.229-.02.125-.02.229-.042.354 0 .062-.02.125-.02.166-.021.146-.021.271-.042.417 0 .042 0 .084-.021.125-.02.146-.02.292-.02.459v.104c0 .145-.022.312-.022.458v1.271c0 .104 0 .208.021.333v.188c0 .104.021.208.021.312 0 .063 0 .125.02.167.022.146.022.291.042.458 0 .063.021.125.021.188.021.104.021.187.042.291 0 .063.02.125.02.209.022.104.022.208.042.291 0 .063.021.125.021.167-.02.02 0 .063 0 .083zm3.85 13.125a3.887 3.887 0 0 1 -.562-4.77 21.185 21.185 0 0 0 5.225 5.416c-1.499.834-3.414.625-4.663-.646zm20.671 4.292a3.905 3.905 0 0 1 -3.726 2.751c-1.749 0-3.227-1.167-3.726-2.75.166.02.333.063.479.083.062 0 .125.021.208.021.083.021.187.021.27.042.104.02.188.02.292.041.062 0 .125.021.187.021.104.021.208.021.312.042.042 0 .105 0 .146.02.125 0 .23.022.354.022h.125c.125 0 .25.02.375.02h.062c.292.021.583.021.895.021.292 0 .583 0 .895-.02h.063c.125 0 .25-.021.374-.021h.125c.125 0 .23-.021.354-.021.042 0 .104 0 .146-.021.104 0 .208-.02.312-.042.063 0 .125-.02.188-.02.104-.021.187-.021.291-.042.083-.021.187-.021.27-.042.063 0 .125-.02.209-.02.187-.042.354-.063.52-.084zm13.219-4.292a3.892 3.892 0 0 1 -4.663.646 21.185 21.185 0 0 0 5.225-5.416c.375.604.562 1.291.562 2.02a3.776 3.776 0 0 1 -1.124 2.75z" fill="url(#b)" fill-rule="nonzero"/><path d="m29.763 41.53c-3.09.754-6.285.523-9.23-.67-7.746-3.118-11.504-11.972-8.393-19.738a15.427 15.427 0 0 1 3.633-5.358c.418-.398.418-1.026.042-1.445-.397-.418-1.023-.418-1.44-.041a17.244 17.244 0 0 0 -4.135 6.07c-3.529 8.812.73 18.859 9.521 22.396a16.949 16.949 0 0 0 6.39 1.256 18.02 18.02 0 0 0 4.071-.481c.543-.126.877-.691.752-1.235-.105-.545-.668-.88-1.211-.754z" fill="url(#c)"/><path d="m33.23 11.245a17.048 17.048 0 0 0 -10.453-.753c-.542.126-.876.69-.75 1.235.124.544.688.879 1.23.753a14.965 14.965 0 0 1 9.222.67c7.74 3.118 11.495 11.97 8.387 19.735v.02a15.343 15.343 0 0 1 -3.63 5.337c-.418.398-.418 1.026-.042 1.444.208.21.48.314.73.314s.5-.084.71-.272a17.241 17.241 0 0 0 4.13-6.07c3.526-8.81-.751-18.855-9.534-22.413z" fill="url(#d)"/><path d="m33.779 39.21-.06.03c-.691.425-.932 1.335-.51 2.032.27.455.75.728 1.261.728.24 0 .51-.06.751-.212l.06-.03c.691-.425.932-1.335.51-2.032a1.457 1.457 0 0 0 -2.012-.516z" fill="url(#e)"/><path d="m17.47 15c.27 0 .51-.06.751-.212l.06-.03c.691-.425.932-1.335.51-2.032-.42-.698-1.321-.94-2.012-.516l-.06.03c-.691.425-.932 1.335-.51 2.032.3.485.78.728 1.261.728z" fill="url(#f)"/></g></svg>