<svg xmlns="http://www.w3.org/2000/svg" xmlns:xlink="http://www.w3.org/1999/xlink" height="64" viewBox="0 0 54 64" width="54"><linearGradient id="a"><stop offset="0" stop-color="#e94a53"/><stop offset="1" stop-color="#f96447"/></linearGradient><linearGradient id="b" x1=".014%" x2="100.079%" xlink:href="#a" y1="49.884%" y2="49.884%"/><linearGradient id="c" x1=".002%" x2="99.996%" xlink:href="#a" y1="50.014%" y2="50.014%"/><linearGradient id="d" x1="-.187%" x2="99.939%" xlink:href="#a" y1="49.961%" y2="49.961%"/><linearGradient id="e" x1=".204%" x2="100.455%" xlink:href="#a" y1="49.927%" y2="49.927%"/><linearGradient id="f" x1="-.598%" x2="100.183%" xlink:href="#a" y1="50.798%" y2="50.798%"/><linearGradient id="g" x1="-.169%" x2="100.58%" xlink:href="#a" y1="50.304%" y2="50.304%"/><g fill="none" fill-rule="evenodd"><path d="m11.7 27.611c-3.666 0-6.942 1.613-9.074 4.145v-5.312c0-6.031 2.34-11.864 6.63-16.357a1.192 1.192 0 0 0 -.104-1.762c-.546-.472-1.378-.422-1.846.1-4.706 4.962-7.306 11.391-7.306 18.043v12.362c0 6.156 5.252 11.17 11.7 11.17.728 0 1.3-.57 1.3-1.241v-19.832c0-.77-.572-1.316-1.3-1.316zm-1.3 19.733c-4.394-.596-7.774-4.22-7.774-8.588 0-4.344 3.38-7.968 7.774-8.588z" fill="url(#b)"/><path d="m45.952 7.842c-5.197-5.064-12.084-7.842-19.376-7.842-4.136 0-8.123.885-11.856 2.655-.63.295-.908 1.032-.58 1.647.302.614 1.06.885 1.69.565 3.38-1.598 6.988-2.384 10.747-2.384 13.725 0 24.876 10.865 24.876 24.238v5.26c-2.094-2.507-5.248-4.08-8.805-4.08-.706 0-1.261.565-1.261 1.229v19.64c0 .69.58 1.23 1.261 1.23 6.256 0 11.352-4.966 11.352-11.062v-12.242c0-7.08-2.85-13.79-8.048-18.854zm-2.042 39.601v-16.986c4.263.615 7.543 4.18 7.543 8.506 0 4.302-3.28 7.89-7.543 8.48z" fill="url(#c)"/><path d="m31 49.187c0-.665-.575-1.187-1.25-1.187-.7 0-1.25.546-1.25 1.187v5.958c-1.425-.854-3.35-1.353-5.5-1.353-4.5 0-8 2.232-8 5.104 0 2.874 3.525 5.104 8 5.104 4.5 0 8-2.231 8-5.104v-9.71zm-8.025 12.415c-3.15 0-5.5-1.424-5.5-2.706s2.35-2.706 5.5-2.706 5.475 1.424 5.5 2.706c0 1.282-2.35 2.706-5.5 2.706z" fill="url(#d)"/><path d="m37.55 33.702-7.566-5.468a1.336 1.336 0 0 0 -1.298-.119c-.417.213-.686.616-.686 1.065v9.683c0 .663.563 1.184 1.224 1.184.686 0 1.225-.545 1.225-1.184v-7.291l5.094 3.693v7.551c0 .663.563 1.184 1.224 1.184.686 0 1.225-.544 1.225-1.184v-8.166a.978.978 0 0 0 -.441-.947z" fill="url(#e)"/><path d="m11.5 4c-.84 0-1.5.69-1.5 1.5 0 .84.69 1.5 1.5 1.5.84 0 1.5-.69 1.5-1.5s-.66-1.5-1.5-1.5z" fill="url(#f)"/><path d="m29.5 42c-.84 0-1.5.69-1.5 1.5 0 .84.69 1.5 1.5 1.5.84 0 1.5-.69 1.5-1.5.029-.81-.66-1.5-1.5-1.5z" fill="url(#g)"/></g></svg>