<svg xmlns="http://www.w3.org/2000/svg" xmlns:xlink="http://www.w3.org/1999/xlink" height="59" viewBox="0 0 48 59" width="48"><linearGradient id="a"><stop offset="0" stop-color="#e94a53"/><stop offset="1" stop-color="#f96447"/></linearGradient><linearGradient id="b" x1=".12%" x2="99.88%" xlink:href="#a" y1="50.112%" y2="50.112%"/><linearGradient id="c" x1=".36%" x2="100.12%" xlink:href="#a" y1="49.871%" y2="49.871%"/><linearGradient id="d" x1=".2%" x2="99.96%" xlink:href="#a" y1="49.871%" y2="49.871%"/><linearGradient id="e" x1=".2%" x2="99.96%" xlink:href="#a" y1="50.112%" y2="50.112%"/><linearGradient id="f" x1=".36%" x2="100.12%" xlink:href="#a" y1="50.112%" y2="50.112%"/><linearGradient id="g" x1=".029%" x2="99.971%" xlink:href="#a" y1="50.002%" y2="50.002%"/><g fill="none" fill-rule="evenodd"><path d="m24 7c-.558 0-1 .442-1 1s.442 1 1 1 1-.442 1-1-.442-1-1-1z" fill="url(#b)"/><path d="m19.833 10h-4.666c-.651 0-1.167.442-1.167 1s.516 1 1.167 1h4.666c.651 0 1.167-.442 1.167-1s-.516-1-1.167-1z" fill="url(#c)"/><path d="m32.833 10h-4.666c-.651 0-1.167.442-1.167 1s.516 1 1.167 1h4.666c.651 0 1.167-.442 1.167-1s-.516-1-1.167-1z" fill="url(#d)"/><path d="m32.833 16h-4.666c-.651 0-1.167.442-1.167 1s.516 1 1.167 1h4.666c.651 0 1.167-.442 1.167-1s-.516-1-1.167-1z" fill="url(#e)"/><path d="m19.42 16.147h-4.58c-.638 0-1.145.51-1.145 1.154 0 .643.507 1.153 1.145 1.153h4.58c.639 0 1.145-.51 1.145-1.153s-.506-1.154-1.145-1.154z" fill="url(#f)"/><path d="m46.855 30.653h-1.145v-20.25c0-1.908-1.541-3.46-3.435-3.46h-3.435v-4.992c0-.488-.308-.932-.77-1.087a15.909 15.909 0 0 0 -7.134-.688c-3.986.556-6.848 2.664-6.936 2.707-.154-.066-3.7-2.839-9.028-2.839-1.607 0-3.192.244-4.711.732a1.148 1.148 0 0 0 -1.101 1.154v5.035h-3.435c-1.894 0-3.435 1.552-3.435 3.46v20.25h-1.145c-.639 0-1.145.51-1.145 1.154a1.14 1.14 0 0 0 1.145 1.153h21.71v10.558l-13.365 13.464a1.157 1.157 0 0 0 0 1.619c.44.444 1.167.444 1.607 0l11.758-11.844v11.023c0 .643.506 1.154 1.145 1.154s1.145-.51 1.145-1.154v-11.022l11.758 11.844c.44.444 1.167.444 1.607 0a1.16 1.16 0 0 0 0-1.62l-13.365-13.464v-10.558h21.71c.639 0 1.145-.51 1.145-1.153s-.528-1.176-1.145-1.176zm-24 0h-18.275v-20.25c0-.644.506-1.154 1.145-1.154h3.435v17.944c0 .377.176.71.484.932a1.15 1.15 0 0 0 1.035.155c4.03-1.353 8.345-.776 11.868 1.597l.33.222v.554zm1.145-19.097a1.14 1.14 0 0 0 -1.145 1.153v14.706a15.875 15.875 0 0 0 -11.427-1.708v-22.89a13.48 13.48 0 0 1 3.522-.466c4.977 0 7.927 2.64 8.411 2.861a1.12 1.12 0 0 0 1.278 0c.352-.155 5.042-4.28 11.933-2.395v22.868c-4.007-.91-8.036-.222-11.427 1.708v-14.684a1.14 1.14 0 0 0 -1.145-1.153zm19.42 19.097h-18.275v-.532l.33-.222a13.425 13.425 0 0 1 11.868-1.597 1.15 1.15 0 0 0 1.035-.155 1.13 1.13 0 0 0 .484-.932v-17.965h3.413c.639 0 1.145.51 1.145 1.154v20.25z" fill="url(#g)" fill-rule="nonzero"/></g></svg>