<svg xmlns="http://www.w3.org/2000/svg" xmlns:xlink="http://www.w3.org/1999/xlink" height="42" viewBox="0 0 64 42" width="64"><linearGradient id="a"><stop offset="0" stop-color="#e94a53"/><stop offset="1" stop-color="#f96447"/></linearGradient><linearGradient id="b" x1="0%" xlink:href="#a" y1="50%" y2="50%"/><linearGradient id="c" x1=".196%" x2="100.008%" xlink:href="#a" y1="50.2%" y2="50.2%"/><linearGradient id="d" x1=".022%" x2="99.978%" xlink:href="#a" y1="49.964%" y2="49.964%"/><linearGradient id="e" x1=".051%" x2="99.987%" xlink:href="#a" y1="49.973%" y2="49.973%"/><linearGradient id="f" x1=".55%" x2="99.698%" xlink:href="#a" y1="50.722%" y2="50.722%"/><linearGradient id="g" x1=".244%" x2="99.392%" xlink:href="#a" y1="50.592%" y2="50.592%"/><g fill="none" fill-rule="evenodd"><path d="m60.843 1h-5.184c-.683 0-1.259.56-1.259 1.27 0 .709.555 1.268 1.259 1.268h5.184c.362 0 .661.301.661.667v34.633a.667.667 0 0 1 -.661.667h-57.686a.667.667 0 0 1 -.661-.667v-34.633c0-.366.299-.667.661-.667h42.624c.683 0 1.259-.559 1.259-1.269s-.555-1.269-1.259-1.269h-42.624c-1.749 0-3.157 1.441-3.157 3.184v34.632a3.163 3.163 0 0 0 3.157 3.184h57.686a3.164 3.164 0 0 0 3.157-3.184v-34.632c0-1.744-1.408-3.184-3.157-3.184z" fill="url(#b)"/><g fill-rule="nonzero"><path d="m48.33 13h6.34c.721 0 1.33-.565 1.33-1.283v-4.434c0-.696-.586-1.283-1.33-1.283h-6.34c-.72 0-1.33.565-1.33 1.283v4.434a1.325 1.325 0 0 0 1.33 1.283zm1.332-4.435h3.699v1.892h-3.7v-1.892z" fill="url(#c)"/><path d="m6.255 15c-.68 0-1.255.587-1.255 1.332v20.336c0 .723.553 1.332 1.255 1.332h51.49c.68 0 1.255-.587 1.255-1.332v-20.336c0-.723-.553-1.332-1.255-1.332zm43.809 11.444h-1.787v-8.804h1.787v8.803zm-3.043 2.64h.894v6.253h-6.085v-17.697h3.936v10.112c0 .745.553 1.331 1.255 1.331zm-7.68 6.253h-6.086v-6.253h.894c.68 0 1.255-.586 1.255-1.331v-10.113h3.936v17.696zm-23.596-8.893h-1.788v-8.804h1.788v8.803zm1.234 2.64c.68 0 1.255-.586 1.255-1.331v-10.113h1.787v10.112c0 .722.553 1.331 1.256 1.331h.893v6.253h-6.085v-6.253h.894zm7.34-2.64h-1.787v-8.804h1.787v8.803zm.34 2.64h.894c.681 0 1.256-.586 1.256-1.331v-10.113h1.787v10.112c0 .722.553 1.331 1.255 1.331h.894v6.253h-6.085v-6.253zm8.235-2.64h-1.788v-8.804h1.788v8.803zm-25.384-8.804h3.936v10.112c0 .722.553 1.331 1.255 1.331h.894v6.253h-6.085zm48.978 17.696h-6.085v-6.253h.894c.68 0 1.255-.586 1.255-1.331v-10.112h3.936z" fill="url(#d)"/><path d="m44.746 12.98c.68 0 1.254-.525 1.254-1.192v-3.596c0-.647-.553-1.192-1.254-1.192h-28.328c-.68 0-1.254.525-1.254 1.192v2.424h-3.91c-.68 0-1.254.525-1.254 1.192 0 .647.553 1.192 1.254 1.192zm-27.074-3.596h25.842v1.252h-25.842z" fill="url(#e)"/></g><path d="m7.463 12h.074c.794 0 1.463-.661 1.463-1.5 0-.814-.645-1.5-1.463-1.5h-.074c-.794 0-1.463.661-1.463 1.5.025.839.67 1.5 1.463 1.5z" fill="url(#f)"/><path d="m49.463 3h.074c.794 0 1.463-.661 1.463-1.5s-.645-1.5-1.463-1.5h-.074c-.794 0-1.463.661-1.463 1.5s.67 1.5 1.463 1.5z" fill="url(#g)"/></g></svg>