<svg xmlns="http://www.w3.org/2000/svg" xmlns:xlink="http://www.w3.org/1999/xlink" height="64" viewBox="0 0 61 64" width="61"><linearGradient id="a"><stop offset="0" stop-color="#f76148"/><stop offset="1" stop-color="#ee4e4e"/></linearGradient><linearGradient id="b" x1="0%" xlink:href="#a" y1="50%" y2="50%"/><linearGradient id="c" x1="-.018%" x2="99.983%" xlink:href="#a" y1="50.021%" y2="50.021%"/><linearGradient id="d" x1="-.001%" xlink:href="#a" y1="49.999%" y2="49.999%"/><g fill="none" fill-rule="evenodd" transform="matrix(.9998477 .01745241 -.01745241 .9998477 1.134406 -1.000008)"><path d="m18.145 53.05-7.502-7.255c-.518-.5-1.307-.445-1.763.124-.455.569-.405 1.436.113 1.937l7.501 7.255c.518.5 1.307.445 1.763-.124s.406-1.436-.112-1.937z" fill="url(#b)"/><circle cx="47.392" cy="11.357" fill="url(#c)" r="1.5"/><path d="m29.248 53.786c2.79-4.607 4.586-8.45 5.491-11.748.779-2.837.25-5.78-1.41-8.335l6.88-7.797.009.007 6.258-7.093 3.322-2.286 2.021 1.742c.506.436 1.278.38 1.715-.125l.013-.015a1.214 1.214 0 0 0 -.125-1.71l-1.54-1.327 2.016-1.387.904.779a1.22 1.22 0 0 0 1.714-.125l.013-.015a1.214 1.214 0 0 0 -.125-1.71l-.422-.364 2.745-1.89a1.212 1.212 0 0 0 .113-1.907l-9.124-8.01a1.218 1.218 0 0 0 -1.883.354l-1.585 3.061-.657-.576a1.218 1.218 0 0 0 -1.716.109 1.21 1.21 0 0 0 .11 1.71l1.113.978-1.15 2.22-1.569-1.376a1.218 1.218 0 0 0 -1.715.109 1.21 1.21 0 0 0 .11 1.71l1.824 1.603c.067.058.138.108.213.15l-1.809 3.493-7.122 8.072.005.004-6.077 6.887c-2.584-1.124-5.507-1.284-8.393-.4-4.437 1.36-8.704 5.184-11.503 8.153-.41.435-.83.87-1.235 1.29-2.076 2.152-4.036 4.185-5.238 6.634-1.39 2.832-1.563 5.893-.499 8.852.826 2.295 2.392 4.513 4.42 6.26l.105.09c1.4 1.186 3.63 2.785 6.312 3.671 2.777.917 5.344.848 7.631-.207 3.375-1.558 7.813-6.188 9.84-9.535zm20.029-50.467 2.215 1.944-2.41 2.73a1.21 1.21 0 0 0 .261 1.823 1.218 1.218 0 0 0 1.832.01l2.407-2.728.002-.002 2.481 2.178-10.312 7.098-.265-.232-1.959-1.72zm-23.618 31.219 2.547-2.886 1.461-1.656 12.188-13.812.266.234.002-.003 1.824 1.602-10.521 11.923a1.319 1.319 0 0 0 -.038.042l-1.592 1.804-1.452 1.646-2.593 2.938a6.168 6.168 0 0 0 -.225-.278l-.042.047a6.092 6.092 0 0 0 -.748-.816 6.113 6.113 0 0 0 -.809-.554l.038-.043a6.026 6.026 0 0 0 -.306-.188zm-.51 2.623a3.632 3.632 0 0 1 .494 5.27 3.648 3.648 0 0 1 -5.146.325 3.625 3.625 0 0 1 -.328-5.132 3.654 3.654 0 0 1 4.98-.463zm-6.66 24.178c-1.765.815-3.792.854-6.024.117-2.347-.776-4.332-2.202-5.583-3.263-3.296-2.79-5.94-7.562-3.478-12.58 1.05-2.14 2.896-4.054 4.85-6.08.41-.425.833-.864 1.251-1.308 3.7-3.925 7.448-6.61 10.552-7.56 2.123-.651 4.267-.616 6.21.058l-2.581 2.926-.006-.005-.3.342a6.108 6.108 0 0 0 -5.035 2.036 6.045 6.045 0 0 0 .546 8.554 6.081 6.081 0 0 0 8.576-.545 6.074 6.074 0 0 0 1.386-5.24l.563-.638-.008-.007 2.404-2.725c.197.35.37.706.515 1.067.658 1.632.76 3.305.302 4.973-.851 3.102-2.57 6.764-5.253 11.196-2.204 3.64-6.51 7.586-8.887 8.682z" fill="url(#d)" fill-rule="nonzero"/></g></svg>